<mxfile host="app.diagrams.net" modified="2023-04-04T11:52:22.275Z" agent="Mozilla/5.0 (Windows NT 10.0; Win64; x64) AppleWebKit/537.36 (KHTML, like Gecko) Chrome/111.0.0.0 Safari/537.36" etag="BP_hzTxpV6kpp71aa87G" version="21.1.4" type="device">
  <diagram name="Page-1" id="ogHc-N-L-U_355rpjbJU">
    <mxGraphModel dx="1563" dy="1980" grid="1" gridSize="10" guides="1" tooltips="1" connect="1" arrows="1" fold="1" page="1" pageScale="1" pageWidth="850" pageHeight="1100" math="0" shadow="0">
      <root>
        <mxCell id="0" />
        <mxCell id="1" parent="0" />
        <mxCell id="fGR5zp8C8IHzMe-v6FJM-2" value="" style="rounded=0;whiteSpace=wrap;html=1;" parent="1" vertex="1">
          <mxGeometry x="154" y="-125" width="801.5" height="1044" as="geometry" />
        </mxCell>
        <mxCell id="rqdecZv9KFJXbOoX3_gX-2" value="Customer&lt;br&gt;" style="shape=umlActor;verticalLabelPosition=bottom;verticalAlign=top;html=1;outlineConnect=0;" parent="1" vertex="1">
          <mxGeometry x="81" y="296" width="30" height="60" as="geometry" />
        </mxCell>
        <mxCell id="rqdecZv9KFJXbOoX3_gX-3" value="Payment&lt;br&gt;Gateway" style="shape=umlActor;verticalLabelPosition=bottom;verticalAlign=top;html=1;outlineConnect=0;" parent="1" vertex="1">
          <mxGeometry x="1020" y="290" width="30" height="60" as="geometry" />
        </mxCell>
        <mxCell id="rqdecZv9KFJXbOoX3_gX-10" value="Review / Edit Order" style="ellipse;whiteSpace=wrap;html=1;fillColor=none;" parent="1" vertex="1">
          <mxGeometry x="417" y="143" width="120" height="80" as="geometry" />
        </mxCell>
        <mxCell id="rqdecZv9KFJXbOoX3_gX-11" value="&lt;span style=&quot;font-weight: normal;&quot;&gt;Item Purchased&lt;/span&gt;" style="ellipse;whiteSpace=wrap;html=1;fillColor=none;fontStyle=1" parent="1" vertex="1">
          <mxGeometry x="225" y="-111" width="120" height="70" as="geometry" />
        </mxCell>
        <mxCell id="rqdecZv9KFJXbOoX3_gX-12" value="Quantity" style="ellipse;whiteSpace=wrap;html=1;fillColor=none;" parent="1" vertex="1">
          <mxGeometry x="421" y="-111" width="120" height="70" as="geometry" />
        </mxCell>
        <mxCell id="rqdecZv9KFJXbOoX3_gX-13" value="Total Amount" style="ellipse;whiteSpace=wrap;html=1;fillColor=none;" parent="1" vertex="1">
          <mxGeometry x="621" y="-111" width="120" height="70" as="geometry" />
        </mxCell>
        <mxCell id="rqdecZv9KFJXbOoX3_gX-14" value="Make Payment" style="ellipse;whiteSpace=wrap;html=1;fillColor=none;" parent="1" vertex="1">
          <mxGeometry x="422" y="280" width="120" height="80" as="geometry" />
        </mxCell>
        <mxCell id="rqdecZv9KFJXbOoX3_gX-19" value="Order Placed&lt;br&gt;Confirmation" style="ellipse;whiteSpace=wrap;html=1;fillColor=none;" parent="1" vertex="1">
          <mxGeometry x="382" y="800" width="120" height="80" as="geometry" />
        </mxCell>
        <mxCell id="rqdecZv9KFJXbOoX3_gX-25" value="" style="endArrow=classic;dashed=1;html=1;rounded=0;" parent="1" edge="1">
          <mxGeometry width="50" height="50" relative="1" as="geometry">
            <mxPoint x="480" y="40" as="sourcePoint" />
            <mxPoint x="480" y="143" as="targetPoint" />
          </mxGeometry>
        </mxCell>
        <mxCell id="rqdecZv9KFJXbOoX3_gX-27" value="" style="endArrow=none;html=1;rounded=0;" parent="1" edge="1">
          <mxGeometry width="50" height="50" relative="1" as="geometry">
            <mxPoint x="240" y="320" as="sourcePoint" />
            <mxPoint x="240" y="200" as="targetPoint" />
          </mxGeometry>
        </mxCell>
        <mxCell id="rqdecZv9KFJXbOoX3_gX-28" value="" style="endArrow=none;html=1;rounded=0;" parent="1" edge="1">
          <mxGeometry width="50" height="50" relative="1" as="geometry">
            <mxPoint x="240" y="200" as="sourcePoint" />
            <mxPoint x="420" y="200" as="targetPoint" />
          </mxGeometry>
        </mxCell>
        <mxCell id="rqdecZv9KFJXbOoX3_gX-33" value="" style="endArrow=none;html=1;rounded=0;" parent="1" edge="1">
          <mxGeometry width="50" height="50" relative="1" as="geometry">
            <mxPoint x="240" y="840" as="sourcePoint" />
            <mxPoint x="240" y="320" as="targetPoint" />
          </mxGeometry>
        </mxCell>
        <mxCell id="rqdecZv9KFJXbOoX3_gX-35" value="" style="endArrow=none;html=1;rounded=0;exitX=1;exitY=0.5;exitDx=0;exitDy=0;" parent="1" source="rqdecZv9KFJXbOoX3_gX-56" edge="1">
          <mxGeometry width="50" height="50" relative="1" as="geometry">
            <mxPoint x="740" y="706" as="sourcePoint" />
            <mxPoint x="840" y="600" as="targetPoint" />
          </mxGeometry>
        </mxCell>
        <mxCell id="rqdecZv9KFJXbOoX3_gX-55" value="Payment&amp;nbsp;&lt;br&gt;Successful" style="ellipse;whiteSpace=wrap;html=1;fillColor=none;" parent="1" vertex="1">
          <mxGeometry x="302" y="560" width="120" height="80" as="geometry" />
        </mxCell>
        <mxCell id="rqdecZv9KFJXbOoX3_gX-56" value="Payment&amp;nbsp;&lt;br&gt;not Successful" style="ellipse;whiteSpace=wrap;html=1;fillColor=none;" parent="1" vertex="1">
          <mxGeometry x="580" y="560" width="120" height="80" as="geometry" />
        </mxCell>
        <mxCell id="rqdecZv9KFJXbOoX3_gX-57" value="" style="endArrow=classic;dashed=1;html=1;rounded=0;" parent="1" edge="1">
          <mxGeometry width="50" height="50" relative="1" as="geometry">
            <mxPoint x="360" y="560" as="sourcePoint" />
            <mxPoint x="360" y="480" as="targetPoint" />
          </mxGeometry>
        </mxCell>
        <mxCell id="rqdecZv9KFJXbOoX3_gX-62" value="" style="endArrow=none;html=1;rounded=0;entryX=0;entryY=0.5;entryDx=0;entryDy=0;" parent="1" target="rqdecZv9KFJXbOoX3_gX-19" edge="1">
          <mxGeometry width="50" height="50" relative="1" as="geometry">
            <mxPoint x="240" y="840" as="sourcePoint" />
            <mxPoint x="380" y="840" as="targetPoint" />
          </mxGeometry>
        </mxCell>
        <mxCell id="rqdecZv9KFJXbOoX3_gX-63" value="" style="endArrow=none;html=1;rounded=0;exitX=1;exitY=0.5;exitDx=0;exitDy=0;" parent="1" source="rqdecZv9KFJXbOoX3_gX-19" edge="1">
          <mxGeometry width="50" height="50" relative="1" as="geometry">
            <mxPoint x="510" y="840" as="sourcePoint" />
            <mxPoint x="840" y="840" as="targetPoint" />
          </mxGeometry>
        </mxCell>
        <mxCell id="rqdecZv9KFJXbOoX3_gX-69" value="" style="endArrow=none;html=1;rounded=0;fontSize=12;entryX=0.524;entryY=1.006;entryDx=0;entryDy=0;entryPerimeter=0;exitX=0.479;exitY=0.012;exitDx=0;exitDy=0;exitPerimeter=0;" parent="1" source="rqdecZv9KFJXbOoX3_gX-14" target="rqdecZv9KFJXbOoX3_gX-10" edge="1">
          <mxGeometry width="50" height="50" relative="1" as="geometry">
            <mxPoint x="720" y="520" as="sourcePoint" />
            <mxPoint x="770" y="470" as="targetPoint" />
          </mxGeometry>
        </mxCell>
        <mxCell id="tfNAVjJZ_fInTaPSjHmw-10" value="&amp;lt;&amp;lt;include&amp;gt;&amp;gt;" style="text;html=1;strokeColor=none;fillColor=none;align=center;verticalAlign=middle;whiteSpace=wrap;rounded=0;rotation=-90;" parent="1" vertex="1">
          <mxGeometry x="442" y="74" width="60" height="30" as="geometry" />
        </mxCell>
        <mxCell id="tfNAVjJZ_fInTaPSjHmw-25" value="&amp;lt;&amp;lt;extend&amp;gt;&amp;gt;" style="text;html=1;strokeColor=none;fillColor=none;align=center;verticalAlign=middle;whiteSpace=wrap;rounded=0;rotation=-90;" parent="1" vertex="1">
          <mxGeometry x="441" y="405" width="60" height="30" as="geometry" />
        </mxCell>
        <mxCell id="EI9BNmOR0yBQ9UGsbbKN-1" value="" style="endArrow=none;html=1;rounded=0;" parent="1" edge="1">
          <mxGeometry width="50" height="50" relative="1" as="geometry">
            <mxPoint x="120" y="320" as="sourcePoint" />
            <mxPoint x="240" y="320" as="targetPoint" />
          </mxGeometry>
        </mxCell>
        <mxCell id="EI9BNmOR0yBQ9UGsbbKN-2" value="" style="endArrow=none;html=1;rounded=0;entryX=1;entryY=0.5;entryDx=0;entryDy=0;" parent="1" target="rqdecZv9KFJXbOoX3_gX-14" edge="1">
          <mxGeometry width="50" height="50" relative="1" as="geometry">
            <mxPoint x="1000" y="320" as="sourcePoint" />
            <mxPoint x="596.4799999999999" y="320.6099999999997" as="targetPoint" />
          </mxGeometry>
        </mxCell>
        <mxCell id="EI9BNmOR0yBQ9UGsbbKN-5" value="" style="endArrow=none;html=1;rounded=0;" parent="1" edge="1">
          <mxGeometry width="50" height="50" relative="1" as="geometry">
            <mxPoint x="840" y="600" as="sourcePoint" />
            <mxPoint x="840" y="340" as="targetPoint" />
          </mxGeometry>
        </mxCell>
        <mxCell id="FjT9Jv3Txq9Temc8rvlt-3" value="&lt;font face=&quot;Comic Sans MS&quot; style=&quot;font-size: 38px;&quot;&gt;&lt;b&gt;Payment Use-Case Diagram&lt;/b&gt;&lt;/font&gt;" style="rounded=0;whiteSpace=wrap;html=1;" parent="1" vertex="1">
          <mxGeometry x="205" y="-232" width="708" height="80" as="geometry" />
        </mxCell>
        <mxCell id="pDXT83eZUKxuShFXNzwM-1" value="Daatabase" style="shape=umlActor;verticalLabelPosition=bottom;verticalAlign=top;html=1;outlineConnect=0;" parent="1" vertex="1">
          <mxGeometry x="1020" y="690" width="30" height="60" as="geometry" />
        </mxCell>
        <mxCell id="pDXT83eZUKxuShFXNzwM-2" value="" style="endArrow=none;html=1;rounded=0;" parent="1" edge="1">
          <mxGeometry width="50" height="50" relative="1" as="geometry">
            <mxPoint x="840" y="840" as="sourcePoint" />
            <mxPoint x="840" y="720" as="targetPoint" />
          </mxGeometry>
        </mxCell>
        <mxCell id="H2YrojCH1WUmxiFIvHpa-1" value="&lt;font style=&quot;font-size: 14px;&quot;&gt;System&lt;/font&gt;" style="text;html=1;strokeColor=none;fillColor=none;align=center;verticalAlign=middle;whiteSpace=wrap;rounded=0;" parent="1" vertex="1">
          <mxGeometry x="898" y="-123" width="60" height="30" as="geometry" />
        </mxCell>
        <mxCell id="8_AIeLw2YEGurbXlanma-1" value="" style="endArrow=none;dashed=1;html=1;rounded=0;" parent="1" edge="1">
          <mxGeometry width="50" height="50" relative="1" as="geometry">
            <mxPoint x="280" y="40" as="sourcePoint" />
            <mxPoint x="680" y="40" as="targetPoint" />
          </mxGeometry>
        </mxCell>
        <mxCell id="8_AIeLw2YEGurbXlanma-3" value="" style="endArrow=classic;dashed=1;html=1;rounded=0;" parent="1" edge="1">
          <mxGeometry width="50" height="50" relative="1" as="geometry">
            <mxPoint x="280" y="-40" as="sourcePoint" />
            <mxPoint x="280" y="39" as="targetPoint" />
          </mxGeometry>
        </mxCell>
        <mxCell id="8_AIeLw2YEGurbXlanma-4" value="" style="endArrow=classic;dashed=1;html=1;rounded=0;" parent="1" edge="1">
          <mxGeometry width="50" height="50" relative="1" as="geometry">
            <mxPoint x="480" y="-40" as="sourcePoint" />
            <mxPoint x="480" y="39" as="targetPoint" />
          </mxGeometry>
        </mxCell>
        <mxCell id="8_AIeLw2YEGurbXlanma-5" value="" style="endArrow=classic;dashed=1;html=1;rounded=0;" parent="1" edge="1">
          <mxGeometry width="50" height="50" relative="1" as="geometry">
            <mxPoint x="680" y="-40" as="sourcePoint" />
            <mxPoint x="680" y="39" as="targetPoint" />
          </mxGeometry>
        </mxCell>
        <mxCell id="8_AIeLw2YEGurbXlanma-6" value="" style="endArrow=classic;dashed=1;html=1;rounded=0;entryX=0.48;entryY=1.004;entryDx=0;entryDy=0;entryPerimeter=0;" parent="1" target="rqdecZv9KFJXbOoX3_gX-14" edge="1">
          <mxGeometry width="50" height="50" relative="1" as="geometry">
            <mxPoint x="480" y="480" as="sourcePoint" />
            <mxPoint x="350" y="570" as="targetPoint" />
          </mxGeometry>
        </mxCell>
        <mxCell id="8_AIeLw2YEGurbXlanma-7" value="" style="endArrow=none;dashed=1;html=1;rounded=0;" parent="1" edge="1">
          <mxGeometry width="50" height="50" relative="1" as="geometry">
            <mxPoint x="360" y="480" as="sourcePoint" />
            <mxPoint x="640" y="480" as="targetPoint" />
          </mxGeometry>
        </mxCell>
        <mxCell id="8_AIeLw2YEGurbXlanma-9" value="" style="endArrow=classic;dashed=1;html=1;rounded=0;" parent="1" edge="1">
          <mxGeometry width="50" height="50" relative="1" as="geometry">
            <mxPoint x="640" y="560" as="sourcePoint" />
            <mxPoint x="640" y="480" as="targetPoint" />
          </mxGeometry>
        </mxCell>
        <mxCell id="8_AIeLw2YEGurbXlanma-10" value="" style="endArrow=none;html=1;rounded=0;entryX=0.481;entryY=1.003;entryDx=0;entryDy=0;entryPerimeter=0;" parent="1" target="rqdecZv9KFJXbOoX3_gX-55" edge="1">
          <mxGeometry width="50" height="50" relative="1" as="geometry">
            <mxPoint x="360" y="720" as="sourcePoint" />
            <mxPoint x="590" y="530" as="targetPoint" />
          </mxGeometry>
        </mxCell>
        <mxCell id="8_AIeLw2YEGurbXlanma-11" value="" style="endArrow=none;html=1;rounded=0;" parent="1" edge="1">
          <mxGeometry width="50" height="50" relative="1" as="geometry">
            <mxPoint x="360" y="720" as="sourcePoint" />
            <mxPoint x="440" y="720" as="targetPoint" />
          </mxGeometry>
        </mxCell>
        <mxCell id="8_AIeLw2YEGurbXlanma-12" value="" style="endArrow=none;html=1;rounded=0;" parent="1" edge="1">
          <mxGeometry width="50" height="50" relative="1" as="geometry">
            <mxPoint x="440" y="800" as="sourcePoint" />
            <mxPoint x="440" y="720" as="targetPoint" />
          </mxGeometry>
        </mxCell>
        <mxCell id="8_AIeLw2YEGurbXlanma-13" value="" style="endArrow=none;html=1;rounded=0;" parent="1" edge="1">
          <mxGeometry width="50" height="50" relative="1" as="geometry">
            <mxPoint x="840" y="720" as="sourcePoint" />
            <mxPoint x="1000" y="720" as="targetPoint" />
          </mxGeometry>
        </mxCell>
        <mxCell id="ZbopjKpQpYi0MrQ4KDZW-1" value="" style="endArrow=none;html=1;rounded=0;entryX=1;entryY=0.5;entryDx=0;entryDy=0;" parent="1" edge="1">
          <mxGeometry width="50" height="50" relative="1" as="geometry">
            <mxPoint x="840" y="340" as="sourcePoint" />
            <mxPoint x="537" y="340" as="targetPoint" />
          </mxGeometry>
        </mxCell>
      </root>
    </mxGraphModel>
  </diagram>
</mxfile>
